<?xml version="1.0" standalone="no"?>
<!DOCTYPE svg PUBLIC "-//W3C//DTD SVG 20010904//EN"
 "http://www.w3.org/TR/2001/REC-SVG-20010904/DTD/svg10.dtd">
<svg version="1.0" xmlns="http://www.w3.org/2000/svg"
 width="877.000000pt" height="877.000000pt" viewBox="0 0 877.000000 877.000000"
 preserveAspectRatio="xMidYMid meet">
<metadata>
Created by potrace 1.14, written by Peter Selinger 2001-2017
</metadata>
<g transform="translate(0.000000,877.000000) scale(0.100000,-0.100000)"
fill="#000000" stroke="none">
<path d="M4089 8756 c-2 -2 -51 -7 -108 -11 -57 -3 -111 -8 -120 -10 -9 -1
-47 -6 -86 -10 -38 -4 -77 -8 -85 -10 -8 -1 -31 -5 -50 -9 -19 -3 -55 -8 -80
-11 -245 -30 -805 -187 -1071 -300 -46 -20 -102 -43 -124 -53 -62 -25 -437
-216 -471 -239 -16 -11 -72 -46 -124 -79 -82 -50 -264 -174 -310 -211 -302
-239 -530 -464 -744 -733 -99 -125 -248 -364 -336 -540 -137 -273 -258 -652
-286 -895 -3 -27 -7 -56 -10 -63 -22 -68 -22 -665 0 -701 2 -3 7 -28 10 -56 3
-27 8 -61 11 -75 4 -23 12 -65 21 -112 11 -61 72 -272 111 -377 195 -540 560
-1042 1058 -1454 86 -72 88 -73 155 -122 30 -21 57 -42 60 -46 8 -9 208 -141
295 -194 338 -205 734 -377 1139 -496 94 -27 179 -51 191 -53 11 -3 60 -14
108 -25 48 -12 97 -21 108 -21 25 0 26 2 -46 -250 -98 -342 -174 -548 -278
-760 -68 -138 -227 -383 -305 -472 -28 -32 -53 -67 -57 -79 -19 -57 28 -130
85 -131 30 -1 152 50 350 145 232 112 418 227 635 390 110 83 335 298 435 416
25 29 55 65 68 80 57 65 214 278 300 406 52 77 100 143 106 146 6 4 63 10 126
14 63 3 129 8 145 9 85 9 163 18 185 21 14 2 45 7 70 10 116 16 404 71 515 99
209 53 449 131 645 211 111 45 348 152 365 165 6 4 54 30 108 59 133 71 410
243 437 271 3 3 35 27 72 53 162 114 376 307 543 488 107 117 125 138 223 269
363 481 577 1033 619 1595 12 161 4 559 -12 584 -2 3 -6 31 -10 61 -4 30 -8
57 -10 60 -2 3 -6 27 -9 54 -4 27 -9 53 -11 56 -2 4 -7 22 -10 41 -40 232
-198 623 -361 894 -60 100 -199 305 -244 358 -220 265 -395 442 -595 603 -33
26 -62 51 -65 54 -5 6 -119 90 -205 152 -59 42 -257 167 -300 190 -16 8 -64
34 -105 58 -231 129 -590 282 -861 364 -135 41 -329 93 -397 106 -26 5 -81 17
-122 25 -41 9 -91 18 -110 21 -19 2 -73 11 -120 18 -97 17 -171 26 -250 32
-30 2 -73 7 -95 10 -45 7 -709 16 -716 10z m706 -209 c33 -4 85 -9 115 -12 67
-8 315 -43 350 -50 14 -2 36 -7 50 -10 14 -2 36 -7 50 -9 14 -2 48 -10 75 -16
28 -6 58 -13 68 -15 158 -33 469 -130 672 -210 164 -65 473 -217 628 -310 571
-341 1033 -799 1328 -1315 58 -101 119 -225 119 -240 0 -6 5 -10 10 -10 6 0
10 -6 10 -13 0 -7 15 -49 34 -93 97 -229 173 -543 193 -796 12 -155 6 -452
-12 -559 -2 -13 -11 -67 -20 -119 -74 -444 -281 -900 -587 -1291 -106 -136
-117 -148 -273 -304 -125 -126 -168 -165 -295 -272 -119 -100 -337 -247 -530
-358 -114 -66 -390 -205 -405 -205 -3 0 -24 -9 -48 -20 -190 -87 -646 -231
-839 -265 -18 -3 -51 -10 -73 -15 -22 -5 -56 -11 -75 -15 -19 -3 -46 -7 -60
-10 -14 -3 -38 -7 -55 -9 -98 -15 -122 -19 -140 -21 -59 -6 -162 -18 -176 -20
-8 -2 -74 -6 -145 -10 -167 -8 -205 -12 -227 -20 -10 -4 -71 -87 -136 -184
-311 -466 -572 -750 -903 -984 -135 -95 -405 -254 -414 -244 -2 2 9 24 26 50
47 74 145 273 194 394 41 99 141 387 151 432 2 9 16 57 31 106 72 245 111 397
107 426 -6 60 -48 87 -158 104 -22 3 -113 23 -202 45 -386 93 -688 204 -1028
375 -167 84 -452 250 -514 301 -9 7 -63 47 -121 90 -105 78 -121 90 -240 194
-258 224 -512 529 -679 813 -128 220 -257 523 -296 700 -2 10 -7 27 -10 37
-10 33 -52 241 -59 300 -25 187 -26 545 -1 669 2 12 7 42 9 65 20 159 92 423
168 610 101 248 229 473 402 706 153 206 376 436 617 635 25 21 203 154 254
190 17 12 77 51 135 87 407 254 822 433 1288 553 75 20 150 38 167 41 16 3 59
11 95 19 170 37 400 69 590 81 47 3 86 7 88 9 6 6 629 -2 697 -8z"/>
<path d="M4771 7219 c-175 -33 -289 -246 -231 -436 16 -53 64 -112 106 -129
46 -19 119 -18 179 3 64 23 143 102 181 180 24 50 28 70 28 143 0 70 -3 92
-22 123 -58 99 -133 135 -241 116z"/>
<path d="M4550 5967 c-138 -50 -364 -231 -514 -413 -49 -60 -53 -68 -45 -96
16 -56 79 -136 79 -100 0 13 178 190 224 221 68 47 91 53 117 32 39 -31 37
-192 -6 -406 -8 -38 -16 -81 -19 -95 -5 -26 -33 -170 -40 -205 -18 -88 -78
-395 -82 -415 -2 -14 -7 -36 -9 -50 -3 -14 -8 -36 -10 -50 -3 -14 -19 -95 -35
-180 -17 -85 -33 -166 -36 -180 -2 -14 -9 -47 -14 -75 -18 -97 -22 -131 -25
-225 -6 -196 62 -315 186 -324 91 -7 220 47 354 146 84 62 329 305 370 366
l29 44 -28 51 c-16 29 -33 58 -39 64 -7 10 -41 -19 -131 -110 -215 -218 -297
-250 -323 -127 -5 24 -4 142 2 170 9 47 25 125 29 150 3 14 12 61 21 105 9 44
19 91 21 105 3 14 34 171 69 350 35 179 66 336 69 350 2 14 21 107 40 208 42
214 51 285 51 407 -1 134 -40 235 -110 281 -41 27 -122 27 -195 1z"/>
</g>
</svg>
